{"title":"Doctor.Who.S18E01.The.Leisure.Hive.iNTERNAL.DVDrip.x264.AC3-VRiS","uid":11271581,"size":3325900788,"categoryP":"video","categoryS":"tv_shows","magnet":"?xt=urn:btih:ad5910a59c08e55d1620a033efb8ac49804f3b85&amp;dn=Doctor.Who.S18E01.The.Leisure.Hive.iNTERNAL.DVDrip.x264.AC3-VRiS&amp;tr=udp%3A%2F%2Ftracker.openbittorrent.com%3A80&amp;tr=udp%3A%2F%2Fopen.demonii.com%3A1337&amp;tr=udp%3A%2F%2Ftracker.coppersurfer.tk%3A6969&amp;tr=udp%3A%2F%2Fexodus.desync.com%3A6969","seeders":1,"leechers":1,"uploader":"WhoRipsWho","files":22,"time":1414087412,"description":"Format                         : Matroska\nFormat version                 : Version 4 / Version 2\nFile size                      : 548 MiB\nDuration                       : 23mn 36s\nOverall bit rate               : 3 247 Kbps\nEncoded date                   : UTC 2014-10-22 22:49:25\nWriting application            : mkvmerge v7.1.0 ('Good Love') 64bit built on Jul 27 2014 13:06:55\nWriting library                : libebml v1.3.0 + libmatroska v1.4.1\n\nVideo\nID                             : 1\nFormat                         : AVC\nFormat/Info                    : Advanced Video Codec\nFormat profile                 : &lt;a class=&quot;__cf_email__&quot; href=&quot;/cdn-cgi/l/email-protection&quot; data-cfemail=&quot;470f2e202f070b746976&quot;&gt;[email&amp;#160;protected]&lt;/a&gt;&lt;script cf-hash='f9e31' type=&quot;text/javascript&quot;&gt;\n/* &lt;![CDATA[ */!function(){try{var t=&quot;currentScript&quot;in document?document.currentScript:function(){for(var t=document.getElementsByTagName(&quot;script&quot;),e=t.length;e--;)if(t[e].getAttribute(&quot;cf-hash&quot;))return t[e]}();if(t&amp;&amp;t.previousSibling){var e,r,n,i,c=t.previousSibling,a=c.getAttribute(&quot;data-cfemail&quot;);if(a){for(e=&quot;&quot;,r=parseInt(a.substr(0,2),16),n=2;a.length-n;n+=2)i=parseInt(a.substr(n,2),16)^r,e+=String.fromCharCode(i);e=document.createTextNode(e),c.parentNode.replaceChild(e,c)}}}catch(u){}}();/* ]]&gt; */&lt;/script&gt;\nFormat settings, CABAC         : Yes\nFormat settings, ReFrames      : 5 frames\nCodec ID                       : V_MPEG4/ISO/AVC\nDuration                       : 23mn 36s\nBit rate                       : 2 159 Kbps\nWidth                          : 700 pixels\nHeight                         : 540 pixels\nDisplay aspect ratio           : 1.296\nFrame rate mode                : Constant\nFrame rate                     : 50.000 fps\nStandard                       : PAL\nColor space                    : YUV\nChroma subsampling             : 4:2:0\nBit depth                      : 8 bits\nScan type                      : Progressive\nBits/(Pixel*Frame)             : 0.114\nStream size                    : 364 MiB (66%)\nWriting library                : x264 core 142 r2479 dd79a61\nEncoding settings              : cabac=1 / ref=5 / deblock=1:-2:-2 / analyse=0x3:0x113 / me=umh / subme=8 / psy=1 / psy_rd=1.10:0.00 / mixed_ref=1 / me_range=16 / chroma_me=1 / trellis=1 / 8x8dct=1 / cqm=0 / deadzone=21,11 / fast_pskip=1 / chroma_qp_offset=-2 / threads=6 / lookahead_threads=1 / sliced_threads=0 / nr=0 / decimate=1 / interlaced=0 / bluray_compat=0 / constrained_intra=0 / bframes=3 / b_pyramid=2 / b_adapt=2 / b_bias=0 / direct=3 / weightb=1 / open_gop=0 / weightp=2 / keyint=300 / keyint_min=30 / scenecut=40 / intra_refresh=0 / rc_lookahead=50 / rc=crf / mbtree=1 / crf=19.0 / qcomp=0.60 / qpmin=0 / qpmax=69 / qpstep=4 / ip_ratio=1.40 / aq=1:0.80\nLanguage                       : English\nDefault                        : Yes\nForced                         : No\nColor primaries                : BT.601 PAL\nTransfer characteristics       : BT.470 System B, BT.470 System G\nMatrix coefficients            : BT.601\n_STATISTICS_WRITING_APP        : mkvmerge v7.1.0 ('Good Love') 64bit built on Jul 27 2014 13:06:55\n_STATISTICS_WRITING_DATE_UTC   : 2014-10-22 22:49:25\n_STATISTICS_TAGS               : BPS DURATION NUMBER_OF_FRAMES NUMBER_OF_BYTES\nDURATION                       : 00:23:36.000000000\nNUMBER_OF_FRAMES               : 70800\nNUMBER_OF_BYTES                : 392785403\n\nAudio #1\nID                             : 2\nFormat                         : AC-3\nFormat/Info                    : Audio Coding 3\nMode extension                 : CM (complete main)\nFormat settings, Endianness    : Big\nCodec ID                       : A_AC3\nDuration                       : 23mn 36s\nBit rate mode                  : Constant\nBit rate                       : 448 Kbps\nChannel(s)                     : 6 channels\nChannel positions              : Front: L C R, Side: L R, LFE\nSampling rate                  : 48.0 KHz\nBit depth                      : 16 bits\nCompression mode               : Lossy\nStream size                    : 75.6 MiB (14%)\nTitle                          : Surround Main Audio\nLanguage                       : English\nDefault                        : Yes\nForced                         : No\n\nAudio #2\nID                             : 3\nFormat                         : AC-3\nFormat/Info                    : Audio Coding 3\nMode extension                 : CM (complete main)\nFormat settings, Endianness    : Big\nCodec ID                       : A_AC3\nDuration                       : 23mn 36s\nBit rate mode                  : Constant\nBit rate                       : 192 Kbps\nChannel(s)                     : 2 channels\nChannel positions              : Front: L R\nSampling rate                  : 48.0 KHz\nBit depth                      : 16 bits\nCompression mode               : Lossy\nStream size                    : 32.4 MiB (6%)\nTitle                          : Original Audio\nLanguage                       : English\nDefault                        : No\nForced                         : No\n\nAudio #3\nID                             : 4\nFormat                         : AC-3\nFormat/Info                    : Audio Coding 3\nMode extension                 : CM (complete main)\nFormat settings, Endianness    : Big\nCodec ID                       : A_AC3\nDuration                       : 23mn 36s\nBit rate mode                  : Constant\nBit rate                       : 192 Kbps\nChannel(s)                     : 2 channels\nChannel positions              : Front: L R\nSampling rate                  : 48.0 KHz\nBit depth                      : 16 bits\nCompression mode               : Lossy\nStream size                    : 32.4 MiB (6%)\nTitle                          : Commentary\nLanguage                       : English\nDefault                        : No\nForced                         : No\n\nAudio #4\nID                             : 5\nFormat                         : AC-3\nFormat/Info                    : Audio Coding 3\nMode extension                 : CM (complete main)\nFormat settings, Endianness    : Big\nCodec ID                       : A_AC3\nDuration                       : 23mn 36s\nBit rate mode                  : Constant\nBit rate                       : 192 Kbps\nChannel(s)                     : 2 channels\nChannel positions              : Front: L R\nSampling rate                  : 48.0 KHz\nBit depth                      : 16 bits\nCompression mode               : Lossy\nStream size                    : 32.4 MiB (6%)\nTitle                          : Music Only\nLanguage                       : English\nDefault                        : No\nForced                         : No\n\nText #1\nID                             : 6\nFormat                         : UTF-8\nCodec ID                       : S_TEXT/UTF8\nCodec ID/Info                  : UTF-8 Plain Text\nTitle                          : Episode\nLanguage                       : English\nDefault                        : Yes\nForced                         : No\n\nText #2\nID                             : 7\nFormat                         : UTF-8\nCodec ID                       : S_TEXT/UTF8\nCodec ID/Info                  : UTF-8 Plain Text\nTitle                          : Information\nLanguage                       : English\nDefault                        : No\nForced                         : No\n\nText #3\nID                             : 8\nFormat                         : UTF-8\nCodec ID                       : S_TEXT/UTF8\nCodec ID/Info                  : UTF-8 Plain Text\nTitle                          : Commentary\nLanguage                       : English\nDefault                        : No\nForced                         : No","torrent":{"xt":"urn:btih:ad5910a59c08e55d1620a033efb8ac49804f3b85","amp;dn":"Doctor.Who.S18E01.The.Leisure.Hive.iNTERNAL.DVDrip.x264.AC3-VRiS","amp;tr":["udp%3A%2F%2Ftracker.openbittorrent.com%3A80","udp%3A%2F%2Fopen.demonii.com%3A1337","udp%3A%2F%2Ftracker.coppersurfer.tk%3A6969","udp%3A%2F%2Fexodus.desync.com%3A6969"],"infoHash":"ad5910a59c08e55d1620a033efb8ac49804f3b85","infoHashBuffer":{"type":"Buffer","data":[173,89,16,165,156,8,229,93,22,32,160,51,239,184,172,73,128,79,59,133]},"announce":[],"urlList":[]}}